# xmcd
#
# Track frame offsets:
#	150
#	28091
#	56477
#	91228
#	129983
#	164635
#	192129
#	217868
#
# Disc length: 3296 seconds
#
# Revision: 1
# Processed by: cddbd v1.4PL0 Copyright (c) Steve Scherf et al.
# Submitted via: audiograbber 1.82.02
#
DISCID=650cde08
DTITLE=Pan - Down Under
DYEAR=1900
DGENRE=
TTITLE0=Volando VDY
TTITLE1=Teispeza
TTITLE2=Island in the Sun
TTITLE3=Moliendo Cafe
TTITLE4=Mapila
TTITLE5=One More Sandra
TTITLE6=La Parpida
TTITLE7=Soca Dance
EXTD=
EXTT0=
EXTT1=
EXTT2=
EXTT3=
EXTT4=
EXTT5=
EXTT6=
EXTT7=
PLAYORDER=
